<svg width="100" height="100" viewBox="0 0 100 100" fill="none" xmlns="http://www.w3.org/2000/svg">
<circle cx="50" cy="50" r="50" fill="white"/>
<path d="M15.4456 60.1631H86.3696V50.5753C86.3696 47.2478 83.5969 44.5505 80.1767 44.5505H78.3558L74.5658 36.1313C72.889 32.4065 69.1053 30 64.9254 30H47.1353V44.7924H15.4456V60.1631Z" fill="#3CA43C"/>
<path d="M86.3696 50.5753C86.3696 47.2478 83.6043 44.5505 80.1931 44.5505H78.377L74.597 36.1313C72.9247 32.4064 69.151 30 64.9821 30H47.2391V60.1631H86.3696V50.5753Z" fill="#68C468"/>
<path d="M69.2049 36.4958C68.3225 34.5306 66.3313 33.2609 64.1316 33.2609H51.3152V43.8587H72.5109L69.2049 36.4958Z" fill="#E8E8E8"/>
<path d="M88 57.7174H13V63.4239H88V57.7174Z" fill="#228B22"/>
<path d="M88 57.7174H47.2391V63.4239H88V57.7174Z" fill="#3CA43C"/>
<path d="M26.4511 70.7608C30.7283 70.7608 34.1956 67.476 34.1956 63.4239C34.1956 59.3718 30.7283 56.0869 26.4511 56.0869C22.1739 56.0869 18.7065 59.3718 18.7065 63.4239C18.7065 67.476 22.1739 70.7608 26.4511 70.7608Z" fill="#595959"/>
<path d="M26.4511 67.5C28.4771 67.5 30.1196 65.8576 30.1196 63.8316C30.1196 61.8055 28.4771 60.1631 26.4511 60.1631C24.4251 60.1631 22.7826 61.8055 22.7826 63.8316C22.7826 65.8576 24.4251 67.5 26.4511 67.5Z" fill="#E8E8E8"/>
<path d="M74.5489 70.7608C78.8261 70.7608 82.2935 67.476 82.2935 63.4239C82.2935 59.3718 78.8261 56.0869 74.5489 56.0869C70.2717 56.0869 66.8044 59.3718 66.8044 63.4239C66.8044 67.476 70.2717 70.7608 74.5489 70.7608Z" fill="#303030"/>
<path d="M74.5489 67.5C76.575 67.5 78.2174 65.8576 78.2174 63.8316C78.2174 61.8055 76.575 60.1631 74.5489 60.1631C72.5229 60.1631 70.8804 61.8055 70.8804 63.8316C70.8804 65.8576 72.5229 67.5 74.5489 67.5Z" fill="#E8E8E8"/>
<path d="M86.3694 50.6465C86.3694 50.2776 86.3334 49.9168 86.2683 49.5652H82.0944C80.4033 49.5652 79.0326 50.8427 79.0326 52.4184C79.0326 53.9942 80.4033 55.2717 82.0944 55.2717H86.3695V50.6465H86.3694Z" fill="white"/>
</svg>
