<svg width="20" height="20" viewBox="0 0 20 20" fill="none" xmlns="http://www.w3.org/2000/svg">
<circle cx="10" cy="10" r="10" fill="#0D3081"/>
<path d="M14.9453 6H5.05469C4.47433 6 4 6.44776 4 7V13C4 13.5524 4.47463 14 5.05469 14H14.9453C15.5257 14 16 13.5522 16 13V7C16 6.44762 15.5254 6 14.9453 6ZM14.7834 6.66667C14.4424 6.99104 10.437 10.8011 10.2724 10.9576C10.135 11.0884 9.86507 11.0884 9.72756 10.9576L5.21664 6.66667H14.7834ZM4.70312 12.8774V7.12256L7.72809 10L4.70312 12.8774ZM5.21664 13.3333L8.22447 10.4722L9.22959 11.4283C9.64148 11.8201 10.3587 11.8199 10.7704 11.4283L11.7756 10.4722L14.7834 13.3333H5.21664ZM15.2969 12.8774L12.2719 10L15.2969 7.12256V12.8774Z" fill="white"/>
</svg>
