<svg width="24" height="24" viewBox="0 0 24 24" fill="none" xmlns="http://www.w3.org/2000/svg">
<path d="M20.5416 3.53441C18.5278 1.51476 15.8521 0.275648 12.9978 0.0407882C10.1434 -0.194072 7.29843 0.590796 4.97647 2.25369C2.6545 3.91658 1.00858 6.34792 0.335853 9.10873C-0.336871 11.8695 0.00793954 14.7779 1.30803 17.3087L0.0342824 23.4411C0.0206439 23.5024 0.0201154 23.5658 0.0327312 23.6272C0.045347 23.6887 0.0708262 23.7469 0.107523 23.798C0.160075 23.8753 0.235196 23.9349 0.322833 23.9688C0.41047 24.0026 0.506445 24.0091 0.597916 23.9874L6.64822 22.5633C9.19332 23.8187 12.1051 24.1378 14.8652 23.4639C17.6254 22.7899 20.0548 21.1665 21.7211 18.8828C23.3874 16.599 24.1825 13.803 23.9647 10.9924C23.747 8.18178 22.5306 5.53899 20.5321 3.53441H20.5416ZM18.6501 18.4929C17.2573 19.8716 15.4638 20.7827 13.5218 21.0982C11.5798 21.4137 9.58684 21.1177 7.82325 20.2518L6.97621 19.8349L3.26005 20.7065V20.6591L4.0434 16.9424L3.62943 16.134C2.72769 14.3804 2.4093 12.3886 2.71994 10.4444C3.03059 8.50018 3.95431 6.70353 5.35855 5.31225C7.12175 3.56557 9.51207 2.58446 12.0043 2.58446C14.4966 2.58446 16.8869 3.56557 18.6501 5.31225L18.6915 5.36909C20.4318 7.12131 21.4033 9.48453 21.3943 11.9439C21.3854 14.4033 20.3967 16.7595 18.6437 18.4992L18.6501 18.4929Z" fill="white"/>
<path d="M18.3219 15.7898C17.8666 16.5003 17.1437 17.3687 16.2426 17.5866C14.6504 17.9655 12.2271 17.5866 9.19236 14.8046L9.15415 14.7698C6.51431 12.3257 5.81375 10.2889 5.96978 8.67529C6.06213 7.75637 6.83275 6.92903 7.48236 6.38589C7.58564 6.29953 7.70786 6.23833 7.83925 6.20717C7.97065 6.17601 8.10757 6.17576 8.23908 6.20645C8.37058 6.23713 8.49303 6.2979 8.59662 6.38388C8.70022 6.46987 8.7821 6.5787 8.83571 6.70167L9.81332 8.89318C9.87714 9.03425 9.90107 9.18987 9.88256 9.34339C9.86405 9.49691 9.80379 9.64255 9.70823 9.76472L9.21147 10.3963C9.10822 10.5274 9.04671 10.686 9.0348 10.8519C9.02289 11.0179 9.06111 11.1836 9.1446 11.3278C9.61646 12.0175 10.1811 12.6401 10.8228 13.1783C11.5132 13.8372 12.2962 14.3935 13.1473 14.8298C13.3027 14.8919 13.4732 14.9067 13.6371 14.8724C13.8009 14.8381 13.9508 14.7563 14.0676 14.6372L14.6376 14.0625C14.7461 13.9468 14.8847 13.8632 15.0381 13.8208C15.1916 13.7785 15.3538 13.779 15.507 13.8225L17.8316 14.4825C17.9633 14.5196 18.0843 14.587 18.1849 14.6792C18.2855 14.7714 18.3628 14.8857 18.4105 15.013C18.4583 15.1403 18.4751 15.2769 18.4597 15.4119C18.4444 15.5468 18.3972 15.6763 18.3219 15.7898Z" fill="white"/>
</svg>
