<svg width="100" height="100" viewBox="0 0 100 100" fill="none" xmlns="http://www.w3.org/2000/svg">
<circle cx="50" cy="50" r="50" fill="white"/>
<path d="M37.1249 61.2502C37.6221 61.2502 38.099 61.0527 38.4507 60.701C38.8023 60.3494 38.9998 59.8725 38.9998 59.3752C38.9998 58.8779 38.8023 58.401 38.4507 58.0494C38.099 57.6978 37.6221 57.5002 37.1249 57.5002H27.75C26.7554 57.5002 25.8016 57.8953 25.0983 58.5986C24.3951 59.3018 24 60.2557 24 61.2502V76.25C24 77.2446 24.3951 78.1984 25.0983 78.9017C25.8016 79.6049 26.7554 80 27.75 80H37.1249C37.6221 80 38.099 79.8025 38.4507 79.4508C38.8023 79.0992 38.9998 78.6223 38.9998 78.125C38.9998 77.6278 38.8023 77.1508 38.4507 76.7992C38.099 76.4476 37.6221 76.25 37.1249 76.25H27.75V70.6251H31.4999C31.9972 70.6251 32.4741 70.4276 32.8257 70.0759C33.1774 69.7243 33.3749 69.2474 33.3749 68.7501C33.3749 68.2529 33.1774 67.7759 32.8257 67.4243C32.4741 67.0727 31.9972 66.8751 31.4999 66.8751H27.75V61.2502H37.1249Z" fill="#228B22"/>
<path d="M50.2497 61.2502C51.2442 61.2502 52.198 61.6453 52.9013 62.3485C53.6045 63.0518 53.9996 64.0056 53.9996 65.0002C53.9996 65.4974 54.1972 65.9744 54.5488 66.326C54.9004 66.6776 55.3773 66.8751 55.8746 66.8751C56.3719 66.8751 56.8488 66.6776 57.2004 66.326C57.552 65.9744 57.7496 65.4974 57.7496 65.0002C57.7496 63.0111 56.9594 61.1034 55.5529 59.6969C54.1464 58.2904 52.2388 57.5002 50.2497 57.5002C48.2606 57.5002 46.3529 58.2904 44.9464 59.6969C43.5399 61.1034 42.7498 63.0111 42.7498 65.0002V72.5001C42.7498 74.4892 43.5399 76.3968 44.9464 77.8033C46.3529 79.2098 48.2606 80 50.2497 80C52.2388 80 54.1464 79.2098 55.5529 77.8033C56.9594 76.3968 57.7496 74.4892 57.7496 72.5001C57.7496 72.0028 57.552 71.5259 57.2004 71.1743C56.8488 70.8226 56.3719 70.6251 55.8746 70.6251C55.3773 70.6251 54.9004 70.8226 54.5488 71.1743C54.1972 71.5259 53.9996 72.0028 53.9996 72.5001C53.9996 73.4946 53.6045 74.4485 52.9013 75.1517C52.198 75.855 51.2442 76.25 50.2497 76.25C49.2551 76.25 48.3013 75.855 47.5981 75.1517C46.8948 74.4485 46.4997 73.4946 46.4997 72.5001V65.0002C46.4997 64.0056 46.8948 63.0518 47.5981 62.3485C48.3013 61.6453 49.2551 61.2502 50.2497 61.2502Z" fill="#228B22"/>
<path d="M68.9994 57.5002C67.0103 57.5002 65.1027 58.2904 63.6962 59.6969C62.2897 61.1034 61.4995 63.0111 61.4995 65.0002V72.5001C61.4995 74.4892 62.2897 76.3968 63.6962 77.8033C65.1027 79.2098 67.0103 80 68.9994 80C70.9885 80 72.8962 79.2098 74.3027 77.8033C75.7092 76.3968 76.4993 74.4892 76.4993 72.5001V65.0002C76.4993 63.0111 75.7092 61.1034 74.3027 59.6969C72.8962 58.2904 70.9885 57.5002 68.9994 57.5002ZM72.7494 72.5001C72.7494 73.4946 72.3543 74.4485 71.6511 75.1517C70.9478 75.855 69.994 76.25 68.9994 76.25C68.0049 76.25 67.0511 75.855 66.3478 75.1517C65.6446 74.4485 65.2495 73.4946 65.2495 72.5001V65.0002C65.2495 64.0056 65.6446 63.0518 66.3478 62.3485C67.0511 61.6453 68.0049 61.2502 68.9994 61.2502C69.994 61.2502 70.9478 61.6453 71.6511 62.3485C72.3543 63.0518 72.7494 64.0056 72.7494 65.0002V72.5001Z" fill="#228B22"/>
<path d="M75.4336 21.8194C69.0587 31.8693 69.4149 39.7254 65.7962 44.8629C64.8439 46.1971 63.6334 47.3268 62.2367 48.1849C60.8399 49.043 59.2852 49.6122 57.6645 49.8587C56.0439 50.1052 54.3902 50.024 52.8015 49.62C51.2127 49.216 49.7212 48.4974 48.4152 47.5066C45.9702 45.6101 44.3437 42.8498 43.8695 39.792C43.3954 36.7342 44.1094 33.611 45.8652 31.063C46.1945 30.5469 46.5644 30.0579 46.9715 29.6005C54.2839 21.3319 68.7962 20.1506 74.3836 20.0006C74.5991 19.9936 74.8125 20.0452 75.001 20.1499C75.1894 20.2547 75.3459 20.4086 75.4537 20.5953C75.5615 20.7821 75.6166 20.9945 75.613 21.2101C75.6095 21.4257 75.5475 21.6363 75.4336 21.8194Z" fill="#3CA43C"/>
<path d="M48.2089 47.3191C47.9527 47.5587 47.6836 47.784 47.4027 47.9941C46.3225 48.7984 45.0938 49.3809 43.7874 49.708C42.4811 50.0351 41.1228 50.1003 39.7911 49.8999C38.4594 49.6994 37.1805 49.2373 36.0283 48.5401C34.8761 47.8429 33.8733 46.9245 33.0778 45.8379C30.1154 41.6567 30.3966 35.263 25.1467 27.1068C25.0534 26.9572 25.0028 26.785 25.0001 26.6087C24.9975 26.4324 25.0429 26.2587 25.1317 26.1063C25.2204 25.954 25.349 25.8287 25.5036 25.744C25.6582 25.6593 25.833 25.6183 26.0092 25.6256C30.0029 25.7193 39.4715 26.4693 45.8652 31.0818C44.1387 33.5858 43.4209 36.6493 43.8554 39.6597C44.29 42.6701 45.8447 45.4055 48.2089 47.3191Z" fill="#004D00"/>
</svg>
