<svg width="20" height="20" viewBox="0 0 20 20" fill="none" xmlns="http://www.w3.org/2000/svg">
<circle cx="10" cy="10" r="10" fill="#0D3081"/>
<path d="M10 4C6.69627 4 4 6.69646 4 10C4 13.3037 6.69646 16 10 16C13.3037 16 16 13.3035 16 10C16 6.69627 13.3035 4 10 4ZM10 15.2969C7.07929 15.2969 4.70312 12.9207 4.70312 10C4.70312 7.07929 7.07929 4.70312 10 4.70312C12.9207 4.70312 15.2969 7.07929 15.2969 10C15.2969 12.9207 12.9207 15.2969 10 15.2969Z" fill="white"/>
<path d="M7.01685 13.3347C7.21101 13.3347 7.36841 13.1773 7.36841 12.9831C7.36841 12.7889 7.21101 12.6315 7.01685 12.6315C6.82268 12.6315 6.66528 12.7889 6.66528 12.9831C6.66528 13.1773 6.82268 13.3347 7.01685 13.3347Z" fill="white"/>
<path d="M12.9832 7.36846C13.1773 7.36846 13.3347 7.21106 13.3347 7.0169C13.3347 6.82274 13.1773 6.66534 12.9832 6.66534C12.789 6.66534 12.6316 6.82274 12.6316 7.0169C12.6316 7.21106 12.789 7.36846 12.9832 7.36846Z" fill="white"/>
<path d="M6.76826 6.7683C6.63096 6.90559 6.63096 7.12818 6.76826 7.26548C6.90555 7.40277 7.12814 7.40277 7.26544 7.26548C7.40273 7.12818 7.40273 6.90559 7.26544 6.7683C7.12816 6.631 6.90555 6.631 6.76826 6.7683Z" fill="white"/>
<path d="M12.7346 12.7345C12.5973 12.8718 12.5973 13.0944 12.7346 13.2317C12.8719 13.369 13.0944 13.369 13.2317 13.2317C13.369 13.0944 13.369 12.8718 13.2317 12.7345C13.0944 12.5972 12.8718 12.5972 12.7346 12.7345Z" fill="white"/>
<path d="M10 6.83594C10.1942 6.83594 10.3516 6.67853 10.3516 6.48438V5.78125C10.3516 5.58709 10.1942 5.42969 10 5.42969C9.80584 5.42969 9.64844 5.58709 9.64844 5.78125V6.48438C9.64844 6.67853 9.80584 6.83594 10 6.83594Z" fill="white"/>
<path d="M10 13.1641C9.80584 13.1641 9.64844 13.3215 9.64844 13.5156V14.2188C9.64844 14.4129 9.80584 14.5703 10 14.5703C10.1942 14.5703 10.3516 14.4129 10.3516 14.2188V13.5156C10.3516 13.3215 10.1942 13.1641 10 13.1641Z" fill="white"/>
<path d="M6.83594 10C6.83594 9.80584 6.67853 9.64844 6.48438 9.64844H5.78125C5.58709 9.64844 5.42969 9.80584 5.42969 10C5.42969 10.1942 5.58709 10.3516 5.78125 10.3516H6.48438C6.67853 10.3516 6.83594 10.1942 6.83594 10Z" fill="white"/>
<path d="M13.1641 10C13.1641 10.1942 13.3215 10.3516 13.5156 10.3516H14.2188C14.4129 10.3516 14.5703 10.1942 14.5703 10C14.5703 9.80584 14.4129 9.64844 14.2188 9.64844H13.5156C13.3215 9.64844 13.1641 9.80584 13.1641 10Z" fill="white"/>
<path d="M10.3516 9.85438V7.89062C10.3516 7.69647 10.1942 7.53906 10 7.53906C9.80584 7.53906 9.64844 7.69647 9.64844 7.89062V10C9.64844 10.0932 9.68549 10.1826 9.75142 10.2486L11.8608 12.358C11.9981 12.4952 12.2207 12.4953 12.358 12.358C12.4953 12.2207 12.4953 11.9981 12.358 11.8608L10.3516 9.85438Z" fill="white"/>
</svg>
