<svg width="24" height="33" viewBox="0 0 24 33" fill="none" xmlns="http://www.w3.org/2000/svg">
<path d="M10.7971 32.5695C10.9764 32.8384 11.2783 33 11.6016 33C11.9248 33 12.2267 32.8385 12.406 32.5695C14.694 29.1375 18.0641 24.899 20.4125 20.5883C22.2903 17.1416 23.2031 14.202 23.2031 11.6016C23.2031 5.20446 17.9987 0 11.6016 0C5.20446 0 0 5.20446 0 11.6016C0 14.202 0.912849 17.1416 2.79063 20.5883C5.1373 24.8957 8.51381 29.1446 10.7971 32.5695ZM11.6016 1.93359C16.9325 1.93359 21.2695 6.27064 21.2695 11.6016C21.2695 13.8706 20.4338 16.5076 18.7145 19.6633C16.6903 23.379 13.8016 27.1481 11.6016 30.3168C9.40184 27.1486 6.51299 23.3791 4.48858 19.6633C2.76936 16.5076 1.93359 13.8706 1.93359 11.6016C1.93359 6.27064 6.27064 1.93359 11.6016 1.93359Z" fill="white"/>
<path d="M11.6016 17.4023C14.8001 17.4023 17.4023 14.8001 17.4023 11.6016C17.4023 8.40301 14.8001 5.80078 11.6016 5.80078C8.40301 5.80078 5.80078 8.40301 5.80078 11.6016C5.80078 14.8001 8.40301 17.4023 11.6016 17.4023ZM11.6016 7.73438C13.7339 7.73438 15.4688 9.4692 15.4688 11.6016C15.4688 13.7339 13.7339 15.4688 11.6016 15.4688C9.4692 15.4688 7.73438 13.7339 7.73438 11.6016C7.73438 9.4692 9.4692 7.73438 11.6016 7.73438Z" fill="white"/>
</svg>
