<svg width="26" height="26" viewBox="0 0 26 26" fill="none" xmlns="http://www.w3.org/2000/svg">
<path d="M25.1331 12.5667C25.1331 19.7739 19.0707 25.561 11.7656 25.1086C5.50655 24.7208 0.412282 19.6265 0.0248816 13.3675C-0.427952 6.06233 5.35921 0 12.5664 0C14.5459 0 16.42 0.456733 18.0871 1.27443C18.5338 1.4937 18.6976 2.0501 18.4511 2.48257L18.4493 2.4856C18.2214 2.88513 17.7239 3.03377 17.3114 2.83053C15.6569 2.01587 13.7654 1.61937 11.7691 1.76193C6.52575 2.1359 2.24355 6.3414 1.77685 11.5774C1.19618 18.0943 6.41871 23.5642 12.8541 23.3961C18.3653 23.2522 22.9655 18.8816 23.369 13.3835C23.4738 11.9552 23.3018 10.5725 22.8927 9.2976C22.7632 8.8933 22.9517 8.45693 23.3313 8.26713C23.8053 8.0301 24.3864 8.26713 24.5472 8.77197C24.9277 9.9684 25.1331 11.2433 25.1331 12.5667Z" fill="#68C468"/>
<path d="M6.2441 9.30453L13.0968 18.5766C13.6142 19.2768 14.6672 19.2162 15.1036 18.4613L25.0061 1.31949C25.5218 0.426826 24.3453 -0.470607 23.6437 0.280793L13.3269 11.3317L7.34087 8.01839C6.53183 7.57076 5.69117 8.55616 6.2441 9.30453Z" fill="#228B22"/>
</svg>
