<svg width="30" height="21" viewBox="0 0 30 21" fill="none" xmlns="http://www.w3.org/2000/svg">
<path d="M27.3633 0H2.63672C1.18582 0 0 1.17536 0 2.625V18.375C0 19.8252 1.18658 21 2.63672 21H27.3633C28.8142 21 30 19.8246 30 18.375V2.625C30 1.17501 28.8136 0 27.3633 0ZM26.9584 1.75C26.1059 2.60149 16.0925 12.6029 15.6811 13.0138C15.3375 13.3569 14.6627 13.3572 14.3189 13.0138L3.0416 1.75H26.9584ZM1.75781 18.0533V2.94671L9.32022 10.5L1.75781 18.0533ZM3.0416 19.25L10.5612 11.7395L13.074 14.2493C14.1037 15.2777 15.8967 15.2773 16.9261 14.2493L19.4389 11.7395L26.9584 19.25H3.0416ZM28.2422 18.0533L20.6798 10.5L28.2422 2.94671V18.0533Z" fill="white"/>
</svg>
