<svg width="22" height="21" viewBox="0 0 22 21" fill="none" xmlns="http://www.w3.org/2000/svg">
<path d="M21.5999 13.9572L17.0189 9.29073C16.4852 8.74712 15.6201 8.74712 15.0865 9.29073C14.5528 9.83481 14.5528 10.7161 15.0865 11.2597L16.4788 12.678C7.13255 13.146 1.05605 6.75622 0.999659 0.206755C0.997826 -0.0300236 0.671398 -0.0781269 0.598961 0.139503C-1.65761 6.94817 2.44658 15.4997 13.1733 17.046C14.2122 17.1838 15.263 17.2884 16.322 17.3641L15.0855 18.6236C14.5519 19.1672 14.5519 20.049 15.0855 20.5921C15.6192 21.1357 16.4843 21.1362 17.018 20.5921L21.599 15.9257C22.1335 15.3825 22.1335 14.5013 21.5999 13.9572Z" fill="#3CA43C"/>
</svg>
