<svg width="100" height="100" viewBox="0 0 100 100" fill="none" xmlns="http://www.w3.org/2000/svg">
<circle cx="50" cy="50" r="50" fill="white"/>
<path d="M60.8963 36.2207H33.1038C32.5875 36.2207 32.1689 36.6392 32.1689 37.1556V40.7595C32.1689 41.2759 32.5875 41.6944 33.1038 41.6944H60.8963C61.4126 41.6944 61.8312 41.2759 61.8312 40.7595V37.1556C61.8312 36.6392 61.4126 36.2207 60.8963 36.2207Z" fill="#6A6A6A"/>
<path d="M60.8965 36.2207H57.5309V41.6944H60.8965C61.4128 41.6944 61.8313 41.2759 61.8313 40.7595V37.1556C61.8313 36.6392 61.4128 36.2207 60.8965 36.2207Z" fill="#67676B"/>
<path d="M60.8963 76.2917H33.1038C32.5875 76.2917 32.1689 76.7102 32.1689 77.2266V80.8306C32.1689 81.3471 32.5875 81.7655 33.1038 81.7655H60.8963C61.4126 81.7655 61.8312 81.3471 61.8312 80.8306V77.2266C61.8312 76.7103 61.4126 76.2917 60.8963 76.2917Z" fill="#6A6A6A"/>
<path d="M62.0652 39.8245H31.9349C31.4186 39.8245 31 40.2429 31 40.7593V77.2268C31 77.7432 31.4186 78.1617 31.9349 78.1617H62.0652C62.5815 78.1617 63.0001 77.7432 63.0001 77.2268V40.7593C63.0001 40.2429 62.5815 39.8245 62.0652 39.8245Z" fill="#F1F1F1"/>
<path d="M62.0652 18H31.9349C31.4186 18 31 18.4185 31 18.9349V37.1555C31 37.6719 31.4186 38.0904 31.9349 38.0904H62.0652C62.5815 38.0904 63.0001 37.6719 63.0001 37.1555V18.9349C63.0001 18.4185 62.5815 18 62.0652 18Z" fill="#F1F1F1"/>
<path d="M62.0652 39.8245H58.6996V78.1617H62.0652C62.5815 78.1617 63 77.7432 63 77.2268V40.7593C63 40.2429 62.5815 39.8245 62.0652 39.8245Z" fill="#EAEAEA"/>
<path d="M62.0652 18H58.6996V38.0904H62.0652C62.5815 38.0904 63 37.6719 63 37.1555V18.9349C63 18.4185 62.5815 18 62.0652 18Z" fill="#EAEAEA"/>
<path d="M32.521 29.413H31.9349C31.4186 29.413 31 29.8314 31 30.3478V37.1556C31 37.672 31.4186 38.0905 31.9349 38.0905H35.4445C35.9608 38.0905 36.3794 37.672 36.3794 37.1556V33.2715C36.3795 31.1439 34.6485 29.413 32.521 29.413Z" fill="#C6C6C6"/>
<path d="M35.4448 39.8245H31.9351C31.4188 39.8245 31.0002 40.2429 31.0002 40.7593V47.567C31.0002 48.0834 31.4188 48.5019 31.9351 48.5019H32.5212C34.6488 48.5019 36.3798 46.771 36.3798 44.6434V40.7593C36.3797 40.2429 35.9611 39.8245 35.4448 39.8245Z" fill="#C6C6C6"/>
<path d="M65.9292 55.9378L66.789 56.7992L67.7942 57.799L68.181 58.1887L70.1882 56.1809L67.9382 53.9288L65.9292 55.9378Z" fill="#228B22"/>
<path d="M72.2338 56.1686L79.1568 63.092C79.6774 63.6102 80.0008 64.3314 79.9996 65.1243C79.9996 65.9187 79.6778 66.6399 79.1568 67.16C78.6378 67.6791 77.9183 68 77.1238 68C76.3297 68 75.6109 67.6787 75.0903 67.1576L68.167 60.2349L72.2338 56.1686Z" fill="#3CA43C"/>
<path d="M71.2784 57.1252L71.8406 56.5615L78.7648 63.4858C79.2032 63.9235 79.4431 64.5049 79.4427 65.1243C79.4427 65.7458 79.2024 66.3288 78.7648 66.7663C78.686 66.8426 78.5842 66.8813 78.4829 66.8813C78.3805 66.8813 78.2785 66.8426 78.2006 66.7648C78.0457 66.6086 78.0457 66.3581 78.2006 66.2034C78.4888 65.916 78.6474 65.531 78.6474 65.1234C78.6477 64.7175 78.4897 64.3359 78.2018 64.0486L71.2784 57.1252Z" fill="#68C468"/>
<path d="M68.1675 60.2352L72.234 56.1687L71.9297 55.8643C71.7475 55.6806 71.4963 55.5686 71.2185 55.5686C70.939 55.5686 70.6881 55.6804 70.506 55.8619L67.8623 58.5081C67.6804 58.6877 67.5674 58.9402 67.5674 59.2188C67.5674 59.4958 67.6804 59.7501 67.8623 59.93L68.1675 60.2352Z" fill="#004D00"/>
<path d="M45 45.9992C45 38.8212 50.8202 33 57.9992 33C65.1791 33 70.999 38.8212 70.9984 45.9992C70.9988 53.1797 65.1783 58.999 57.9992 59.0013C50.8202 58.999 45 53.1795 45 45.9992Z" fill="#004D00"/>
<path d="M57.9996 57.5929C64.4005 57.5929 69.5916 52.4022 69.5916 45.9993C69.5916 39.5984 64.4004 34.4077 57.9996 34.4077C51.5984 34.4077 46.4069 39.5984 46.4069 45.9993C46.4069 52.4023 51.5976 57.5929 57.9996 57.5929Z" fill="#228B22"/>
<path d="M57.9998 56.6643C63.8882 56.6643 68.6639 51.8906 68.6639 45.9992C68.6639 40.1114 63.8882 35.3353 57.9998 35.3353C52.1108 35.3353 47.3359 40.1115 47.3359 45.9992C47.3359 51.8904 52.1102 56.6643 57.9998 56.6643Z" fill="#EAF0FF"/>
<path d="M58.2796 37.0854C58.0985 36.8166 57.7863 36.6482 57.4431 36.6675C55.9707 36.7569 54.5799 37.1712 53.3082 37.9091C52.8607 38.1713 52.7078 38.7488 52.9675 39.197C53.2288 39.6422 53.8068 39.8002 54.2527 39.5358C55.2667 38.9507 56.3764 38.6182 57.5536 38.5472C58.0707 38.5203 58.4683 38.0737 58.436 37.5574C58.4303 37.3784 58.3701 37.2179 58.2796 37.0854Z" fill="white"/>
<path d="M52.2421 40.1784C52.1927 40.103 52.1274 40.0337 52.0552 39.9736C51.6511 39.6439 51.0595 39.7083 50.7326 40.1105C49.772 41.2902 49.111 42.7058 48.8197 44.2118C48.4746 46.0002 48.6548 47.8308 49.3406 49.5098C49.5406 49.9933 50.0901 50.2201 50.57 50.0225C51.0519 49.8269 51.2807 49.279 51.0834 48.7954C50.5368 47.4577 50.3948 45.9954 50.6724 44.5684C50.9001 43.3663 51.4279 42.2366 52.1947 41.2965C52.4606 40.9694 52.4681 40.5091 52.2421 40.1784Z" fill="white"/>
</svg>
