<svg width="100" height="100" viewBox="0 0 100 100" fill="none" xmlns="http://www.w3.org/2000/svg">
<circle cx="50" cy="50" r="50" fill="white"/>
<path d="M69.427 22L69.7698 22.0039C70.1117 22.0126 70.4507 22.0342 70.7864 22.0684C71.4576 22.1366 72.1151 22.2556 72.7551 22.4199C73.0751 22.5021 73.3907 22.5955 73.7014 22.7002C73.9086 22.77 74.1139 22.8443 74.3167 22.9238C74.5193 23.0033 74.7194 23.0879 74.9172 23.1768C75.0162 23.2212 75.1145 23.2667 75.2122 23.3135C75.8958 23.6407 76.5483 24.024 77.1633 24.457C78.0423 25.0759 78.8447 25.7966 79.552 26.6016C79.6932 26.7623 79.8306 26.9264 79.9641 27.0938C80.2985 27.5128 80.6083 27.9519 80.8909 28.4092C81.1168 28.7747 81.3257 29.1516 81.5159 29.5391C81.8013 30.1204 82.0452 30.7253 82.2434 31.3496C82.3095 31.5577 82.3702 31.7681 82.426 31.9805C82.4539 32.0864 82.4809 32.1928 82.5061 32.2998C82.5567 32.5143 82.601 32.7309 82.6409 32.9492C82.6608 33.0582 82.6794 33.1675 82.6965 33.2773C82.7481 33.6072 82.7874 33.941 82.8137 34.2783C82.84 34.6155 82.8538 34.9561 82.8538 35.2998C82.8538 35.6434 82.84 35.9841 82.8137 36.3213C82.7874 36.6586 82.7481 36.9924 82.6965 37.3223C82.6793 37.4324 82.6608 37.5421 82.6409 37.6514C82.601 37.8693 82.5566 38.0856 82.5061 38.2998C82.4809 38.4068 82.4539 38.5132 82.426 38.6191C82.3702 38.8315 82.3095 39.0419 82.2434 39.25C82.0452 39.8744 81.8013 40.4792 81.5159 41.0605C81.3257 41.448 81.1168 41.8249 80.8909 42.1904C80.6083 42.6477 80.2985 43.0868 79.9641 43.5059C79.8305 43.6734 79.6934 43.8381 79.552 43.999C78.8448 44.8038 78.0421 45.5239 77.1633 46.1426C76.5483 46.5756 75.8958 46.9589 75.2122 47.2861C75.1145 47.3329 75.0162 47.3784 74.9172 47.4229C74.7194 47.5117 74.5193 47.5963 74.3167 47.6758C74.1139 47.7553 73.9087 47.8296 73.7014 47.8994C73.3906 48.0042 73.0752 48.0985 72.7551 48.1807C72.1151 48.3449 71.4575 48.463 70.7864 48.5312C70.4507 48.5654 70.1117 48.587 69.7698 48.5957C69.6558 48.5986 69.5416 48.5996 69.427 48.5996H62.6135L61.8274 49.3867V49.3857L55.5706 55.6426C55.0227 56.1902 54.2001 56.3472 53.4993 56.0547C52.7887 55.7615 52.3264 55.0678 52.3264 54.2998V48.4648C45.89 47.5407 40.8 41.9887 40.8 35.2998C40.8001 27.967 46.894 22 54.2268 22H69.427Z" fill="#E8E8E8"/>
<path d="M31.2998 30.7399C32.118 30.7399 32.8443 31.2627 33.1016 32.0377L36.9014 43.4117C37.0875 43.969 37.0049 44.5794 36.6807 45.067L33.458 49.902C34.6791 52.4632 36.8406 55.2623 39.3359 57.7272C41.8325 60.1908 44.6634 62.3206 47.2246 63.5416L52.0596 60.319C52.5497 59.996 53.1576 59.9109 53.7148 60.0983L65.1152 63.8981C65.6966 64.0909 66.1209 64.5477 66.2969 65.109C66.3263 65.2027 66.3492 65.2993 66.3643 65.3981C66.3793 65.4966 66.3867 65.5976 66.3867 65.6998V73.2994C66.3867 74.2293 66.1729 75.0869 65.7998 75.8395C65.7168 76.0068 65.6265 76.1692 65.5283 76.3258C65.4303 76.4822 65.3249 76.633 65.2129 76.778C64.9888 77.0679 64.7377 77.3341 64.4648 77.5739C64.1919 77.8137 63.8973 78.0277 63.585 78.2115C63.2726 78.3954 62.9428 78.5494 62.6006 78.6715C62.4294 78.7326 62.255 78.7852 62.0781 78.8297C61.9014 78.8742 61.7222 78.9109 61.541 78.9381C61.2691 78.979 60.9926 78.9996 60.7139 78.9996L60.2002 78.9957C60.0295 78.9932 59.859 78.99 59.6885 78.985C55.9324 78.8747 52.217 78.1612 48.6426 76.9449C47.9929 76.7239 47.3477 76.4867 46.708 76.233C44.788 75.4715 42.9155 74.5652 41.1064 73.5309C40.5037 73.1863 39.9083 72.8272 39.3203 72.4547C36.6735 70.7779 34.1815 68.825 31.9004 66.649L31.1484 65.9147C23.2065 58.0045 18.0002 47.3587 18 36.4137C18 33.2699 20.5576 30.7399 23.7002 30.7399H31.2998Z" fill="#3CA43C"/>
<path d="M54.2266 37.2C55.276 37.2 56.1266 36.3493 56.1266 35.3C56.1266 34.2507 55.276 33.4 54.2266 33.4C53.1773 33.4 52.3266 34.2507 52.3266 35.3C52.3266 36.3493 53.1773 37.2 54.2266 37.2Z" fill="black"/>
<path d="M62.0216 33.4093C62.2131 33.4288 62.3961 33.4769 62.5665 33.549C62.68 33.597 62.7879 33.6556 62.8888 33.7238C62.99 33.7921 63.084 33.8701 63.17 33.9562C63.2561 34.0422 63.3341 34.1362 63.4025 34.2374C63.6073 34.5406 63.7267 34.9065 63.7267 35.2999C63.7265 35.9557 63.3943 36.5338 62.8888 36.8751C62.7879 36.9433 62.68 37.0019 62.5665 37.0499C62.3393 37.1461 62.0895 37.1993 61.8273 37.1993L61.6329 37.1896C60.6748 37.0924 59.9271 36.2836 59.9269 35.2999C59.9269 34.2506 60.7779 33.3995 61.8273 33.3995L62.0216 33.4093Z" fill="black"/>
<path d="M69.4268 37.2C70.4761 37.2 71.3268 36.3493 71.3268 35.3C71.3268 34.2507 70.4761 33.4 69.4268 33.4C68.3775 33.4 67.5268 34.2507 67.5268 35.3C67.5268 36.3493 68.3775 37.2 69.4268 37.2Z" fill="black"/>
</svg>
