<svg width="21" height="22" viewBox="0 0 21 22" fill="none" xmlns="http://www.w3.org/2000/svg">
<path d="M7.04282 21.5999L11.7093 17.0189C12.2529 16.4852 12.2529 15.6201 11.7093 15.0865C11.1652 14.5528 10.2839 14.5528 9.74032 15.0865L8.32198 16.4788C7.85403 7.13255 14.2438 1.05605 20.7932 0.999659C21.03 0.997826 21.0781 0.671398 20.8605 0.598961C14.0518 -1.65761 5.50025 2.44658 3.95395 13.1733C3.81618 14.2122 3.71157 15.263 3.63592 16.322L2.37637 15.0855C1.83276 14.5519 0.951025 14.5519 0.407882 15.0855C-0.135727 15.6192 -0.136194 16.4843 0.407882 17.018L5.07433 21.599C5.61748 22.1335 6.49874 22.1335 7.04282 21.5999Z" fill="#3CA43C"/>
</svg>
